<svg xmlns="http://www.w3.org/2000/svg" xmlns:xlink="http://www.w3.org/1999/xlink" width="500" zoomAndPan="magnify" viewBox="0 0 375 374.999991" height="500" preserveAspectRatio="xMidYMid meet" version="1.0"><rect x="-37.5" width="450" fill="#ffffff" y="-37.499999" height="449.999989" fill-opacity="1"/><rect x="-37.5" width="450" fill="#ffffff" y="-37.499999" height="449.999989" fill-opacity="1"/><path fill="#ed1c24" d="M 24.082031 169.769531 L 121.242188 267.058594 L 121.242188 169.769531 Z M 24.082031 169.769531 " fill-opacity="1" fill-rule="nonzero"/><path fill="#ed1c24" d="M 125.378906 61.347656 L 24.242188 162.621094 L 226.507812 162.621094 Z M 125.378906 61.347656 " fill-opacity="1" fill-rule="nonzero"/><path fill="#ed1c24" d="M 234.71875 61.347656 L 188.667969 107.46875 L 280.769531 107.46875 Z M 234.71875 61.347656 " fill-opacity="1" fill-rule="nonzero"/><path fill="#ed1c24" d="M 128.421875 175.0625 L 128.421875 267.300781 L 174.476562 221.1875 Z M 128.421875 175.0625 " fill-opacity="1" fill-rule="nonzero"/><path fill="#ed1c24" d="M 129.863281 275.925781 L 179.527344 325.652344 L 229.179688 275.925781 L 179.527344 226.207031 Z M 129.863281 275.925781 " fill-opacity="1" fill-rule="nonzero"/><path fill="#ed1c24" d="M 188.683594 114.808594 L 236.601562 162.621094 L 335.652344 162.621094 L 287.910156 114.808594 Z M 188.683594 114.808594 " fill-opacity="1" fill-rule="nonzero"/><path fill="#ed1c24" d="M 230.4375 227.664062 C 224.421875 221.640625 222.785156 220.355469 221.332031 219.609375 C 219.296875 218.632812 217.664062 218.945312 215.984375 220.628906 L 214.082031 222.53125 C 213.90625 222.710938 213.90625 222.886719 214.082031 223.0625 L 235.035156 244.042969 C 235.210938 244.21875 235.390625 244.21875 235.5625 244.042969 L 237.464844 242.140625 C 239.140625 240.460938 239.457031 238.820312 238.480469 236.785156 C 237.730469 235.320312 236.445312 233.683594 230.4375 227.664062 Z M 230.4375 227.664062 " fill-opacity="1" fill-rule="nonzero"/><path fill="#ed1c24" d="M 133.199219 169.769531 L 234.335938 271.042969 L 335.464844 169.769531 Z M 242.242188 245.949219 L 235.300781 252.898438 C 235.035156 253.160156 234.683594 253.160156 234.414062 252.898438 L 205.238281 223.679688 C 204.976562 223.417969 204.976562 223.0625 205.242188 222.792969 L 212.179688 215.84375 C 216.113281 211.910156 220 211.195312 224.292969 213.363281 C 226.460938 214.46875 228.714844 216.289062 235.253906 222.835938 C 241.796875 229.386719 243.613281 231.644531 244.714844 233.816406 C 246.882812 238.113281 246.175781 242.003906 242.242188 245.949219 Z M 267.167969 220.984375 L 254.703125 233.464844 C 254.4375 233.734375 254.082031 233.734375 253.816406 233.464844 L 250.679688 230.324219 C 250.367188 230.015625 250.238281 229.796875 250.015625 229.21875 L 244.050781 208.28125 C 243.429688 205.980469 242.632812 204.5625 240.246094 202.167969 C 239.050781 200.972656 238.609375 200.621094 238.03125 200.3125 C 236.792969 199.691406 235.601562 199.828125 234.496094 200.929688 C 233.390625 202.035156 233.300781 203.191406 233.921875 204.429688 C 234.230469 205.003906 234.585938 205.445312 236.488281 207.347656 C 236.835938 207.703125 236.75 208.058594 236.402344 208.324219 L 232.644531 211.46875 C 232.332031 211.6875 232.023438 211.640625 231.710938 211.332031 C 229.855469 209.472656 228.925781 208.367188 228.347656 207.257812 C 226.582031 203.714844 227.152344 200.042969 230.472656 196.726562 C 233.792969 193.40625 237.367188 192.832031 240.90625 194.597656 C 242.011719 195.171875 243.207031 196.105469 244.753906 197.652344 C 248.074219 200.972656 249.128906 203.1875 250.097656 206.730469 L 255.007812 224.835938 L 255.050781 224.878906 L 263.050781 216.863281 C 263.316406 216.601562 263.667969 216.601562 263.9375 216.863281 L 267.167969 220.097656 C 267.433594 220.359375 267.433594 220.714844 267.167969 220.984375 Z M 276.054688 212.09375 C 275.785156 212.351562 275.433594 212.351562 275.164062 212.09375 L 250.101562 186.996094 C 249.925781 186.816406 249.75 186.816406 249.570312 186.992188 L 244.976562 191.597656 C 244.710938 191.859375 244.355469 191.859375 244.089844 191.597656 L 240.679688 188.1875 C 240.417969 187.921875 240.417969 187.570312 240.683594 187.300781 L 255.132812 172.824219 C 255.398438 172.558594 255.753906 172.5625 256.019531 172.824219 L 259.429688 176.238281 C 259.691406 176.5 259.691406 176.855469 259.429688 177.121094 L 254.828125 181.726562 C 254.652344 181.902344 254.652344 182.082031 254.828125 182.257812 L 279.890625 207.355469 C 280.15625 207.617188 280.15625 207.972656 279.890625 208.242188 Z M 276.054688 212.09375 " fill-opacity="1" fill-rule="nonzero"/></svg>