<svg xmlns="http://www.w3.org/2000/svg" xmlns:xlink="http://www.w3.org/1999/xlink" width="500" zoomAndPan="magnify" viewBox="0 0 375 374.999991" height="500" preserveAspectRatio="xMidYMid meet" version="1.0"><defs><clipPath id="ad77aea371"><path d="M 28.21875 39 L 345 39 L 345 340 L 28.21875 340 Z M 28.21875 39 " clip-rule="nonzero"/></clipPath></defs><rect x="-37.5" width="450" fill="#ffffff" y="-37.499999" height="449.999989" fill-opacity="1"/><rect x="-37.5" width="450" fill="#ffffff" y="-37.499999" height="449.999989" fill-opacity="1"/><g clip-path="url(#ad77aea371)"><path fill="#f5a320" d="M 189.296875 40.9375 C 187.929688 38.464844 184.375 38.464844 183.007812 40.9375 L 133.699219 130.144531 C 133.183594 131.078125 132.28125 131.734375 131.234375 131.933594 L 31.132812 151.253906 C 28.359375 151.789062 27.257812 155.171875 29.191406 157.234375 L 98.816406 231.6875 C 99.542969 232.464844 99.886719 233.527344 99.753906 234.582031 L 87.199219 335.730469 C 86.851562 338.535156 89.730469 340.625 92.289062 339.429688 L 176.949219 299.828125 C 177.007812 295.625 177.058594 291.390625 177.09375 287.128906 C 177.210938 273.308594 169.03125 262.898438 164.074219 256.59375 C 162.835938 255.015625 161.800781 253.695312 161.144531 252.644531 C 158.390625 248.25 155.601562 240.191406 155.605469 230.925781 C 155.609375 224.023438 160.3125 163.386719 161.367188 149.894531 C 161.484375 148.371094 162.753906 147.238281 164.28125 147.238281 C 165.910156 147.238281 167.222656 148.570312 167.207031 150.199219 L 166.414062 222.550781 C 166.40625 224.121094 167.6875 225.433594 169.316406 225.480469 C 170.964844 225.535156 172.355469 224.277344 172.410156 222.667969 L 175.796875 150.128906 C 175.871094 148.507812 177.207031 147.234375 178.828125 147.234375 C 180.484375 147.234375 181.835938 148.5625 181.863281 150.21875 L 183.066406 222.601562 C 183.085938 224.222656 184.441406 225.542969 186.113281 225.558594 C 186.113281 225.558594 186.136719 225.546875 186.148438 225.546875 C 186.160156 225.546875 186.179688 225.558594 186.191406 225.558594 C 187.863281 225.539062 189.210938 224.222656 189.230469 222.601562 L 190.4375 150.222656 C 190.464844 148.5625 191.820312 147.234375 193.476562 147.234375 C 195.101562 147.234375 196.441406 148.511719 196.515625 150.132812 L 199.894531 222.667969 C 199.945312 224.277344 201.335938 225.539062 202.988281 225.480469 C 204.621094 225.433594 205.898438 224.125 205.890625 222.550781 L 205.097656 150.199219 C 205.078125 148.570312 206.394531 147.238281 208.023438 147.238281 C 209.550781 147.238281 210.820312 148.371094 210.9375 149.894531 C 211.992188 163.386719 216.695312 224.015625 216.699219 230.925781 C 216.703125 240.191406 213.910156 248.25 211.164062 252.644531 C 210.507812 253.695312 209.472656 255.011719 208.238281 256.582031 C 203.28125 262.890625 195.09375 273.304688 195.207031 287.128906 C 195.242188 291.390625 195.289062 295.621094 195.351562 299.824219 L 280.015625 339.429688 C 282.578125 340.625 285.453125 338.535156 285.105469 335.730469 L 272.550781 234.582031 C 272.417969 233.527344 272.761719 232.464844 273.492188 231.6875 L 343.117188 157.234375 C 345.046875 155.171875 343.945312 151.789062 341.171875 151.253906 L 241.070312 131.933594 C 240.027344 131.734375 239.125 131.078125 238.609375 130.144531 Z M 189.296875 40.9375 " fill-opacity="1" fill-rule="evenodd"/></g></svg>