<svg xmlns="http://www.w3.org/2000/svg" xmlns:xlink="http://www.w3.org/1999/xlink" width="500" zoomAndPan="magnify" viewBox="0 0 375 374.999991" height="500" preserveAspectRatio="xMidYMid meet" version="1.0"><defs><clipPath id="9131d82d64"><path d="M 26.796875 134 L 348.546875 134 L 348.546875 321.328125 L 26.796875 321.328125 Z M 26.796875 134 " clip-rule="nonzero"/></clipPath><clipPath id="a8a751e50d"><path d="M 31 53.578125 L 341 53.578125 L 341 241 L 31 241 Z M 31 53.578125 " clip-rule="nonzero"/></clipPath></defs><rect x="-37.5" width="450" fill="#ffffff" y="-37.499999" height="449.999989" fill-opacity="1"/><rect x="-37.5" width="450" fill="#ffffff" y="-37.499999" height="449.999989" fill-opacity="1"/><g clip-path="url(#9131d82d64)"><path fill="#ffd500" d="M 345.648438 209.515625 C 342.742188 200.375 337.609375 192.132812 331.136719 184.785156 C 324.671875 177.425781 316.859375 170.964844 308.605469 165.617188 C 301.015625 160.492188 292.761719 156.257812 284.957031 152.917969 C 284.0625 152.472656 282.945312 152.027344 282.050781 151.804688 C 275.585938 149.132812 268.890625 146.902344 262.195312 144.894531 C 230.289062 135.3125 196.59375 132.867188 163.128906 135.3125 C 137.914062 137.765625 112.476562 142.667969 89.273438 152.917969 C 90.160156 154.257812 91.277344 156.035156 92.84375 157.597656 C 98.199219 163.167969 104.445312 167.625 111.136719 171.1875 C 112.253906 171.855469 113.371094 172.304688 114.488281 172.972656 C 121.398438 170.519531 128.542969 168.515625 135.679688 166.953125 L 158.664062 162.945312 C 160.894531 162.722656 162.902344 162.5 164.914062 162.277344 C 196.371094 159.382812 228.949219 162.277344 258.625 173.195312 C 262.640625 174.535156 266.65625 176.089844 270.671875 177.875 C 276.25 180.320312 282.050781 183.445312 287.855469 187.007812 C 290.089844 188.570312 292.539062 189.910156 294.773438 191.6875 C 300.574219 195.917969 305.925781 200.820312 310.167969 206.167969 C 315.078125 212.632812 318.421875 219.988281 318.421875 228.230469 C 318.421875 230.015625 318.199219 232.015625 317.753906 233.800781 C 313.738281 254.746094 289.417969 269.898438 270.453125 278.585938 C 237.425781 292.847656 200.386719 297.300781 164.691406 294.183594 C 130.769531 290.839844 93.511719 280.363281 68.96875 256.972656 C 62.496094 250.730469 56.917969 242.710938 55.128906 234.023438 L 26.796875 238.257812 C 29.691406 253.410156 38.398438 266.773438 49.550781 277.25 C 81.015625 305.765625 122.292969 316.460938 163.128906 320.253906 C 203.289062 323.371094 244.347656 319.140625 282.050781 303.765625 C 313.292969 291.0625 348.546875 265.21875 348.546875 227.5625 C 348.546875 221.320312 347.429688 215.304688 345.648438 209.515625 " fill-opacity="1" fill-rule="nonzero"/></g><g clip-path="url(#a8a751e50d)"><path fill="#4053ff" d="M 42.191406 183 C 42.636719 183.445312 42.863281 184.113281 43.085938 184.5625 C 45.984375 188.792969 49.109375 192.578125 52.679688 196.140625 C 56.023438 199.488281 59.816406 202.605469 63.390625 205.5 C 70.527344 211.070312 78.339844 215.75 86.371094 219.765625 C 90.382812 221.765625 94.40625 223.550781 98.644531 225.328125 C 126.53125 236.472656 157.773438 240.480469 186.777344 240.703125 C 220.464844 240.257812 256.613281 235.140625 287.40625 219.765625 C 282.5 214.195312 273.128906 207.507812 259.742188 201.492188 C 259.742188 201.492188 259.296875 201.492188 259.074219 201.265625 C 230.289062 212.410156 198.605469 215.527344 167.8125 213.078125 C 166.917969 213.078125 166.25 213.078125 165.355469 213.078125 C 148.402344 211.515625 130.546875 207.953125 113.816406 201.492188 C 103.554688 197.480469 93.960938 192.578125 85.253906 186.339844 C 81.460938 183.445312 77.667969 180.542969 74.324219 177.203125 C 73.878906 176.757812 73.429688 176.3125 72.984375 175.867188 C 69.855469 172.75 67.179688 169.1875 64.945312 165.394531 C 61.824219 159.828125 59.816406 153.589844 60.039062 147.347656 C 60.039062 143.5625 60.707031 139.550781 62.050781 135.980469 C 64.285156 129.527344 68.296875 123.507812 73.207031 118.605469 C 96.1875 94.984375 132.78125 84.515625 165.355469 81.394531 C 200.167969 78.277344 236.308594 82.285156 268.21875 96.769531 C 285.179688 104.570312 304.8125 117.714844 311.058594 135.535156 L 340.292969 130.410156 C 336.71875 118.160156 329.804688 107.242188 320.882812 98.105469 C 286.511719 64.242188 234.304688 54.214844 187.222656 53.769531 C 140.140625 54.214844 87.933594 64.242188 52.902344 98.554688 C 39.957031 111.472656 31.257812 128.632812 31.257812 147.347656 C 31.257812 166.0625 31.480469 154.257812 32.152344 157.820312 C 33.714844 166.953125 37.28125 175.417969 42.414062 183.222656 " fill-opacity="1" fill-rule="nonzero"/></g></svg>